<?xml version="1.0" encoding="UTF-8"?>
<svg viewBox="0 0 100 60" xmlns="http://www.w3.org/2000/svg">
  <!-- Main ECU Body -->
  <rect x="5" y="8" width="90" height="44" rx="4" ry="4" 
        fill="#2c3e50" stroke="#34495e" stroke-width="1"/>
  
  <!-- Top Label Area -->
  <rect x="8" y="11" width="84" height="10" rx="2" ry="2" 
        fill="#34495e"/>
  
  <!-- FL3X Brand Text -->
  <text x="50" y="18" text-anchor="middle" fill="#e74c3c" 
        font-family="Arial, sans-serif" font-size="5" font-weight="bold">FL3X Device-L²</text>
  
  <!-- Device Model Text -->
  <text x="50" y="25" text-anchor="middle" fill="#bdc3c7" 
        font-family="Arial, sans-serif" font-size="2.5">Gen 3 Vehicle ECU</text>
  
  <!-- Left Side Connectors -->
  
  <!-- Power Connector (top left) -->
  <rect x="2" y="28" width="6" height="4" rx="1" ry="1" 
        fill="#e74c3c" stroke="#c0392b" stroke-width="0.5"/>
  <circle cx="5" cy="30" r="1" fill="#ffffff"/>
  <text x="1" y="26" fill="#e74c3c" font-family="Arial, sans-serif" 
        font-size="1.8" font-weight="bold">PWR</text>
  
  <!-- RJ45 Ethernet Connector -->
  <rect x="2" y="34" width="6" height="5" rx="0.5" ry="0.5" 
        fill="#34495e" stroke="#2c3e50" stroke-width="0.5"/>
  <rect x="2.5" y="35" width="5" height="3" fill="#1a1a1a"/>
  <!-- RJ45 contacts -->
  <g stroke="#f39c12" stroke-width="0.2">
    <line x1="3" y1="35.5" x2="3" y2="37.5"/>
    <line x1="3.5" y1="35.5" x2="3.5" y2="37.5"/>
    <line x1="4" y1="35.5" x2="4" y2="37.5"/>
    <line x1="4.5" y1="35.5" x2="4.5" y2="37.5"/>
    <line x1="5" y1="35.5" x2="5" y2="37.5"/>
    <line x1="5.5" y1="35.5" x2="5.5" y2="37.5"/>
    <line x1="6" y1="35.5" x2="6" y2="37.5"/>
    <line x1="6.5" y1="35.5" x2="6.5" y2="37.5"/>
  </g>
  <text x="1" y="42" fill="#3498db" font-family="Arial, sans-serif" 
        font-size="1.8" font-weight="bold">ETH</text>
  
  <!-- Digital I/O Connector -->
  <rect x="2" y="40" width="6" height="4" rx="0.5" ry="0.5" 
        fill="#9b59b6" stroke="#8e44ad" stroke-width="0.5"/>
  <g fill="#ffffff">
    <circle cx="3.5" cy="42" r="0.4"/>
    <circle cx="4.5" cy="42" r="0.4"/>
    <circle cx="5.5" cy="42" r="0.4"/>
    <circle cx="6.5" cy="42" r="0.4"/>
  </g>
  <text x="1" y="48" fill="#9b59b6" font-family="Arial, sans-serif" 
        font-size="1.8" font-weight="bold">DIO</text>
  
  <!-- Analog Input Connector -->
  <rect x="2" y="46" width="6" height="4" rx="0.5" ry="0.5" 
        fill="#27ae60" stroke="#229954" stroke-width="0.5"/>
  <g fill="#ffffff">
    <circle cx="4" cy="48" r="0.4"/>
    <circle cx="6" cy="48" r="0.4"/>
  </g>
  <text x="1" y="54" fill="#27ae60" font-family="Arial, sans-serif" 
        font-size="1.8" font-weight="bold">AIN</text>
  
  <!-- Right Side Data Connectors (5 connectors) -->
  <rect x="92" y="26" width="6" height="3" rx="0.5" ry="0.5" 
        fill="#9b59b6" stroke="#8e44ad" stroke-width="0.5"/>
  <circle cx="95" cy="27.5" r="0.6" fill="#ffffff"/>
  
  <rect x="92" y="30" width="6" height="3" rx="0.5" ry="0.5" 
        fill="#9b59b6" stroke="#8e44ad" stroke-width="0.5"/>
  <circle cx="95" cy="31.5" r="0.6" fill="#ffffff"/>
  
  <rect x="92" y="34" width="6" height="3" rx="0.5" ry="0.5" 
        fill="#9b59b6" stroke="#8e44ad" stroke-width="0.5"/>
  <circle cx="95" cy="35.5" r="0.6" fill="#ffffff"/>
  
  <rect x="92" y="38" width="6" height="3" rx="0.5" ry="0.5" 
        fill="#9b59b6" stroke="#8e44ad" stroke-width="0.5"/>
  <circle cx="95" cy="39.5" r="0.6" fill="#ffffff"/>
  
  <rect x="92" y="42" width="6" height="3" rx="0.5" ry="0.5" 
        fill="#9b59b6" stroke="#8e44ad" stroke-width="0.5"/>
  <circle cx="95" cy="43.5" r="0.6" fill="#ffffff"/>
  
  <!-- Data Labels -->
  <text x="99" y="28" fill="#9b59b6" font-family="Arial, sans-serif" 
        font-size="1.5" font-weight="bold">D1</text>
  <text x="99" y="32" fill="#9b59b6" font-family="Arial, sans-serif" 
        font-size="1.5" font-weight="bold">D2</text>
  <text x="99" y="36" fill="#9b59b6" font-family="Arial, sans-serif" 
        font-size="1.5" font-weight="bold">D3</text>
  <text x="99" y="40" fill="#9b59b6" font-family="Arial, sans-serif" 
        font-size="1.5" font-weight="bold">D4</text>
  <text x="99" y="44" fill="#9b59b6" font-family="Arial, sans-serif" 
        font-size="1.5" font-weight="bold">D5</text>
  
  <!-- Status LEDs -->
  <circle cx="15" cy="32" r="1" fill="#27ae60"/>
  <circle cx="18" cy="32" r="1" fill="#f39c12"/>
  <circle cx="21" cy="32" r="1" fill="#e74c3c"/>
  <circle cx="24" cy="32" r="1" fill="#3498db"/>
  
  <!-- LED Labels -->
  <text x="15" y="37" text-anchor="middle" fill="#bdc3c7" 
        font-family="Arial, sans-serif" font-size="1.5">PWR</text>
  <text x="18" y="37" text-anchor="middle" fill="#bdc3c7" 
        font-family="Arial, sans-serif" font-size="1.5">RUN</text>
  <text x="21" y="37" text-anchor="middle" fill="#bdc3c7" 
        font-family="Arial, sans-serif" font-size="1.5">ERR</text>
  <text x="24" y="37" text-anchor="middle" fill="#bdc3c7" 
        font-family="Arial, sans-serif" font-size="1.5">COM</text>
  
  <!-- Cooling fins -->
  <g stroke="#7f8c8d" stroke-width="0.3" opacity="0.6">
    <line x1="75" y1="12" x2="75" y2="20"/>
    <line x1="77" y1="12" x2="77" y2="20"/>
    <line x1="79" y1="12" x2="79" y2="20"/>
    <line x1="81" y1="12" x2="81" y2="20"/>
    <line x1="83" y1="12" x2="83" y2="20"/>
    <line x1="85" y1="12" x2="85" y2="20"/>
    <line x1="87" y1="12" x2="87" y2="20"/>
    <line x1="89" y1="12" x2="89" y2="20"/>
  </g>
  
  <!-- Mounting holes -->
  <circle cx="10" cy="13" r="0.8" fill="#1a252f" stroke="#34495e" stroke-width="0.3"/>
  <circle cx="90" cy="13" r="0.8" fill="#1a252f" stroke="#34495e" stroke-width="0.3"/>
  <circle cx="10" cy="47" r="0.8" fill="#1a252f" stroke="#34495e" stroke-width="0.3"/>
  <circle cx="90" cy="47" r="0.8" fill="#1a252f" stroke="#34495e" stroke-width="0.3"/>
  
  <!-- PCB traces (decorative) -->
  <g stroke="#27ae60" stroke-width="0.4" fill="none" opacity="0.7">
    <path d="M 30 40 L 35 40 L 35 35 L 45 35"/>
    <path d="M 30 42 L 40 42 L 40 38 L 50 38"/>
    <path d="M 55 35 L 65 35 L 65 30 L 75 30"/>
    <path d="M 55 38 L 70 38 L 70 33 L 80 33"/>
  </g>
</svg>